Coordinates
version=1
nRows=10
nColumns=22
inDegrees=yes

Units are S.I. units (second, meters, Newtons, ...)
If the header above contains a line with 'inDegrees', this indicates whether rotational values are in degrees (yes) or radians (no).

endheader
time	pelvis_tilt	pelvis_list	pelvis_rotation	pelvis_tx	pelvis_ty	pelvis_tz	hip_flexion_r	hip_adduction_r	hip_rotation_r	knee_angle_r	ankle_angle_r	subtalar_angle_r	hip_flexion_l	hip_adduction_l	hip_rotation_l	knee_angle_l	ankle_angle_l	subtalar_angle_l	lumbar_extension	lumbar_bending	lumbar_rotation
      2.84000000	      1.13474598	      3.73208295	    -32.77865542	     -0.27201184	      0.99607370	     -0.27048672	     -1.23621056	     -6.26200408	     -3.25452123	    -46.61090344	     -1.32002906	     10.57301783	     16.04934013	      1.70985172	     -6.97119009	    -18.74478219	      5.20126846	      1.77698662	     -2.45501749	     -9.62967517	      2.56012999
      2.85000000	      1.36052988	      3.92972163	    -33.37247486	     -0.26319173	      0.99716984	     -0.26725137	      0.25802443	     -7.06760519	     -3.70041441	    -48.74105241	     -0.80568612	      9.43714116	     15.17505990	      2.07601226	     -7.53775834	    -18.41625971	      5.57753734	      1.59889902	     -2.62188000	     -9.87496474	      2.41379478
      2.86000000	      1.55644181	      4.05146879	    -33.96162330	     -0.25463601	      0.99825638	     -0.26394205	      1.76611298	     -7.71466874	     -4.02550708	    -50.70613428	     -0.11082191	      8.24032743	     14.30475015	      2.35715683	     -8.10117180	    -18.09202873	      5.94481059	      1.49361663	     -2.82184325	    -10.03632639	      2.25224001
      2.87000000	      1.71103388	      4.08772762	    -34.52979879	     -0.24633067	      0.99934535	     -0.26057705	      3.26842541	     -8.18040226	     -4.27208067	    -52.47303721	      0.69796587	      6.98938741	     13.44385730	      2.54239658	     -8.64068487	    -17.77820325	      6.30448688	      1.43394324	     -3.05095788	    -10.09642310	      2.05783977
      2.88000000	      1.83052731	      4.06045634	    -35.08549658	     -0.23825789	      1.00043263	     -0.25716946	      4.76927316	     -8.48923279	     -4.45287041	    -54.04110643	      1.54848304	      5.81440044	     12.58658483	      2.65962654	     -9.13872243	    -17.45894312	      6.65332259	      1.40511785	     -3.29587943	    -10.08023644	      1.85886698
      2.89000000	      1.90291127	      3.95594237	    -35.58963110	     -0.23032941	      1.00153304	     -0.25374507	      6.22794278	     -8.63304288	     -4.65459214	    -55.36751275	      2.41805044	      4.67680007	     11.72951125	      2.69376347	     -9.61531181	    -17.12795458	      7.00468419	      1.38556873	     -3.55122218	     -9.96057023	      1.58861855
      2.90000000	      1.96008758	      3.80518614	    -36.05642230	     -0.22257491	      1.00262506	     -0.25035759	      7.64870624	     -8.66899497	     -4.87201625	    -56.48168805	      3.27990313	      3.68839168	     10.88008118	      2.68850561	    -10.08762088	    -16.81710206	      7.32773137	      1.36669845	     -3.83219618	     -9.78470655	      1.28499927
      2.91000000	      1.97408027	      3.60077624	    -36.44811679	     -0.21487935	      1.00370698	     -0.24701764	      9.01203934	     -8.58962266	     -5.17403090	    -57.34451322	      4.08674894	      2.76629928	     10.01232554	      2.64018108	    -10.43851935	    -16.45035879	      7.67749329	      1.34341341	     -4.10717176	     -9.52422390	      0.93288551
      2.92000000	      1.97986824	      3.37670659	    -36.78122267	     -0.20731227	      1.00475456	     -0.24374220	     10.32501072	     -8.44905262	     -5.53035356	    -57.98863159	      4.84778300	      2.01554779	      9.14221267	      2.58562816	    -10.73864514	    -16.06828552	      8.00362699	      1.31896170	     -4.39954035	     -9.23968503	      0.53518902
      2.93000000	      1.97629433	      3.14852501	    -37.05252567	     -0.19981305	      1.00574927	     -0.24054396	     11.58742693	     -8.28262704	     -5.96695386	    -58.40712860	      5.56288265	      1.46712084	      8.27297949	      2.53549849	    -11.01326149	    -15.65957619	      8.31158063	      1.29774755	     -4.69075289	     -8.93614931	      0.09265610
